<svg width="36" height="40" viewBox="0 0 36 40" fill="none" xmlns="http://www.w3.org/2000/svg">
<path d="M24 40C21.6266 40 19.3065 39.2962 17.3332 37.9776C15.3598 36.6591 13.8217 34.7849 12.9134 32.5922C12.0052 30.3995 11.7676 27.9867 12.2306 25.6589C12.6936 23.3311 13.8365 21.1929 15.5147 19.5147C17.1929 17.8365 19.3311 16.6936 21.6589 16.2306C23.9867 15.7676 26.3995 16.0052 28.5922 16.9134C30.7849 17.8217 32.6591 19.3598 33.9776 21.3332C35.2962 23.3065 36 25.6266 36 28C36 31.1826 34.7357 34.2348 32.4853 36.4853C30.2348 38.7357 27.1826 40 24 40ZM11 13.714C17.076 13.714 22 10.644 22 6.858C22 3.072 17.076 0 11 0C4.924 0 0 3.07 0 6.858C0 10.646 4.924 13.714 11 13.714ZM9.346 21.6C10.0287 20.0518 10.9521 18.6215 12.082 17.362C11.722 17.384 11.37 17.428 11 17.428C4.924 17.428 0 14.358 0 10.572V14.856C0 18.29 4.064 21.098 9.346 21.6ZM8.278 30.912C8.09694 29.9518 8.00389 28.9771 8 28C8 27.52 8.03 27.046 8.072 26.576C3.424 25.778 0 23.152 0 20V24.286C0 27.484 3.524 30.154 8.278 30.912ZM11 40C11.7214 39.9995 12.4421 39.9547 13.158 39.866C12.6628 39.401 12.2122 38.8908 11.812 38.342C11.1031 37.5106 10.4806 36.6093 9.954 35.652C4.376 35.32 0 32.422 0 28.858V33.142C0 36.93 4.924 40 11 40Z" fill="#9F7FDF"/>
</svg>
