<svg width="40" height="40" viewBox="0 0 40 40" fill="none" xmlns="http://www.w3.org/2000/svg">
<path d="M40 11.6667V6.66667C40 2.08667 30.4967 0 21.6667 0C12.8367 0 3.33333 2.08667 3.33333 6.66667V11.6667C3.33333 12.495 3.57666 13.2583 3.98332 13.9683C1.35164 15.1016 0 16.5617 0 18.3333V23.3333C0 25.3217 1.28166 26.9683 3.33333 28.2633V31.6667C3.33333 37.08 12.7783 40 21.6667 40C30.555 40 40 37.08 40 31.6667V26.6667C40 25.0583 38.8766 23.6934 36.6667 22.5967V18.3333C36.6667 17.9084 36.575 17.385 36.2867 16.8233C38.5583 15.4967 40 13.7734 40 11.6667ZM33.3333 23.2166L33.3033 23.4583C33.0883 25.2384 28.6117 27.635 21.5317 28.2067C21.4417 28.2134 21.3467 28.2167 21.2567 28.2234C20.8383 28.255 20.4167 28.2834 19.98 28.3001C19.4433 28.3217 18.895 28.3334 18.3333 28.3334C13.5133 28.3334 8.89502 27.4434 5.97502 25.9534L5.47502 25.6985C4.09334 24.91 3.33333 24.0633 3.33333 23.3333V22.3866C3.35335 22.3966 3.37996 22.4049 3.39998 22.4167C3.80664 22.6167 4.23999 22.805 4.70166 22.98C4.81502 23.025 4.94002 23.0633 5.05664 23.105C5.41829 23.2349 5.79167 23.3599 6.18001 23.4766C6.35335 23.5283 6.53166 23.5767 6.71004 23.6266C7.07674 23.7266 7.45174 23.8216 7.83504 23.9116C8.01506 23.9533 8.19336 23.9966 8.37671 24.035C8.85173 24.1366 9.33838 24.23 9.83504 24.315C9.93001 24.3317 10.0184 24.35 10.1134 24.3667C10.7067 24.4634 11.3134 24.5483 11.9284 24.6217C12.1084 24.6433 12.29 24.6617 12.4701 24.6816C12.9201 24.73 13.37 24.775 13.8267 24.8116C14.0434 24.8299 14.2601 24.8466 14.4784 24.8616C14.9268 24.8916 15.3751 24.9182 15.8251 24.9382C16.0234 24.9465 16.2201 24.9565 16.4185 24.9649C17.0584 24.9866 17.6968 24.9999 18.3334 24.9999C18.9701 24.9999 19.6084 24.9866 20.2485 24.9649C20.4468 24.9566 20.6435 24.9466 20.8418 24.9382C21.2918 24.9182 21.7402 24.8916 22.1885 24.8616C22.4068 24.8466 22.6235 24.8299 22.8402 24.8116C23.2969 24.7749 23.7468 24.73 24.1969 24.6816C24.3769 24.6616 24.5585 24.6433 24.7385 24.6217C25.3535 24.5483 25.9602 24.4633 26.5535 24.3667C26.6485 24.35 26.7369 24.3317 26.8319 24.315C27.3285 24.2301 27.8152 24.1367 28.2902 24.035C28.4736 23.9967 28.6519 23.9533 28.8319 23.9116C29.2152 23.8216 29.5902 23.7266 29.9569 23.6266C30.1352 23.5767 30.3118 23.5283 30.4869 23.4766C30.8752 23.3599 31.2485 23.2349 31.6103 23.105C31.727 23.0633 31.852 23.025 31.9653 22.98C32.4269 22.805 32.8603 22.6166 33.2669 22.4167C33.2869 22.405 33.3119 22.3966 33.3336 22.3866V23.2166H33.3333ZM36.6667 11.6667C36.6667 12.5566 35.5517 13.6217 33.535 14.5417L32.9533 14.78C30.0267 15.9784 25.9133 16.6667 21.6667 16.6667C20.98 16.6667 20.3017 16.645 19.63 16.6117C19.525 16.605 19.4216 16.5983 19.3167 16.5916C18.6767 16.5533 18.0417 16.5033 17.4233 16.435H17.4133C13.3184 15.98 9.795 14.8866 7.87663 13.3983L7.52661 13.1266C6.97331 12.6233 6.66659 12.1217 6.66659 11.6667V10.72C6.6866 10.73 6.71322 10.7383 6.73324 10.75C7.13989 10.95 7.57324 11.1383 8.03491 11.3133C8.14828 11.3583 8.27328 11.3966 8.38989 11.4383C8.75155 11.5683 9.12492 11.6933 9.51327 11.81C9.68661 11.8617 9.86491 11.91 10.0433 11.96C10.41 12.06 10.785 12.1549 11.1683 12.245C11.3483 12.2866 11.5266 12.3299 11.71 12.3683C12.185 12.47 12.6716 12.5633 13.1683 12.6484C13.2633 12.665 13.3516 12.6833 13.4466 12.7C14.04 12.7967 14.6466 12.8817 15.2616 12.955C15.4417 12.9766 15.6233 12.995 15.8033 13.015C16.2533 13.0633 16.7033 13.1083 17.16 13.1449C17.3766 13.1632 17.5933 13.1799 17.8117 13.1949C18.26 13.2249 18.7083 13.2515 19.1584 13.2716C19.3567 13.2799 19.5534 13.2899 19.7517 13.2983C20.3917 13.3199 21.03 13.3333 21.6667 13.3333C22.3035 13.3333 22.9417 13.3199 23.5817 13.2983C23.78 13.29 23.9767 13.2799 24.175 13.2716C24.6251 13.2515 25.0734 13.2249 25.5217 13.1949C25.7401 13.1799 25.9567 13.1632 26.1734 13.1449C26.6301 13.1082 27.0801 13.0633 27.5301 13.015C27.7101 12.995 27.8918 12.9766 28.0718 12.955C28.6868 12.8817 29.2935 12.7966 29.8868 12.7C29.9818 12.6833 30.0702 12.665 30.1651 12.6484C30.6618 12.5634 31.1484 12.4701 31.6235 12.3683C31.8068 12.33 31.9851 12.2866 32.1651 12.245C32.5484 12.1549 32.9234 12.06 33.2901 11.96C33.4684 11.91 33.6451 11.8617 33.8202 11.81C34.2085 11.6933 34.5818 11.5683 34.9435 11.4383C35.0602 11.3966 35.1852 11.3583 35.2985 11.3133C35.7602 11.1383 36.1935 10.95 36.6002 10.75C36.6202 10.7384 36.6452 10.73 36.6668 10.72V11.6667H36.6667Z" fill="#D36995"/>
</svg>
