<svg width="48" height="48" viewBox="0 0 48 48" fill="none" xmlns="http://www.w3.org/2000/svg">
<g filter="url(#filter0_d_2221_528)">
<path d="M30.42 0.000133213H17.5C13.9212 0.00542339 10.4905 1.42944 7.9599 3.96003C5.42931 6.49063 4.00529 9.92134 4 13.5001V26.5001C4.00529 30.0789 5.42931 33.5096 7.9599 36.0402C10.4905 38.5708 13.9212 39.9948 17.5 40.0001H30.5C34.0788 39.9948 37.5095 38.5708 40.0401 36.0402C42.5707 33.5096 43.9947 30.0789 44 26.5001V13.5001C43.9974 11.7213 43.6438 9.96044 42.9594 8.31851C42.275 6.67657 41.2734 5.18583 40.0118 3.93172C38.7503 2.6776 37.2536 1.68477 35.6077 1.01011C33.9617 0.335452 32.1988 -0.00776301 30.42 0.000133213ZM35.16 14.8401L30.26 22.2601C29.7468 23.0174 28.9603 23.5466 28.0654 23.7368C27.1706 23.9269 26.2368 23.7633 25.46 23.2801L20.68 20.2601C20.6268 20.2352 20.5688 20.2222 20.51 20.2222C20.4512 20.2222 20.3932 20.2352 20.34 20.2601C20.2137 20.2754 20.0986 20.3401 20.02 20.4401L15.12 26.9201C14.8841 27.2106 14.5482 27.4024 14.1782 27.4579C13.8081 27.5134 13.4307 27.4286 13.12 27.2201C12.8296 26.9842 12.6378 26.6483 12.5823 26.2783C12.5268 25.9083 12.6116 25.5309 12.82 25.2201L17.72 18.7001C18.2474 17.9986 19.0192 17.5208 19.8823 17.3616C20.7454 17.2023 21.6369 17.3731 22.38 17.8401L27.16 20.8601C27.2189 20.89 27.284 20.9056 27.35 20.9056C27.416 20.9056 27.4811 20.89 27.54 20.8601C27.6009 20.8487 27.6589 20.8251 27.7104 20.7908C27.762 20.7564 27.806 20.712 27.84 20.6601L32.76 13.2401C32.9801 12.9086 33.3229 12.6781 33.713 12.5994C34.1031 12.5206 34.5085 12.6 34.84 12.8201C35.1715 13.0403 35.402 13.3831 35.4808 13.7731C35.5595 14.1632 35.4801 14.5686 35.26 14.9001L35.16 14.8401Z" fill="#229DA9"/>
</g>
<defs>
<filter id="filter0_d_2221_528" x="0" y="0" width="48" height="48" filterUnits="userSpaceOnUse" color-interpolation-filters="sRGB">
<feFlood flood-opacity="0" result="BackgroundImageFix"/>
<feColorMatrix in="SourceAlpha" type="matrix" values="0 0 0 0 0 0 0 0 0 0 0 0 0 0 0 0 0 0 127 0" result="hardAlpha"/>
<feOffset dy="4"/>
<feGaussianBlur stdDeviation="2"/>
<feComposite in2="hardAlpha" operator="out"/>
<feColorMatrix type="matrix" values="0 0 0 0 0 0 0 0 0 0 0 0 0 0 0 0 0 0 0.25 0"/>
<feBlend mode="normal" in2="BackgroundImageFix" result="effect1_dropShadow_2221_528"/>
<feBlend mode="normal" in="SourceGraphic" in2="effect1_dropShadow_2221_528" result="shape"/>
</filter>
</defs>
</svg>
