<svg width="40" height="34" viewBox="0 0 40 34" fill="none" xmlns="http://www.w3.org/2000/svg">
<path d="M23.3334 0H16.6667C7.47664 0 0 7.47664 0 16.6666C0 25.8566 7.47664 33.3333 16.6666 33.3333H23.3333C32.5234 33.3333 40 25.8566 40 16.6666C40 7.47664 32.5234 0 23.3334 0ZM23.285 6.66664H23.2916H23.295C25.975 6.66664 28.465 7.69 30.35 9.54664C31.0066 10.1933 31.0116 11.2483 30.3666 11.9033C30.04 12.2349 29.6116 12.3999 29.18 12.3999C28.7566 12.3999 28.335 12.2416 28.01 11.9216C26.7534 10.6816 25.0916 9.99992 23.3334 9.99992C22.4117 9.99992 21.6417 9.25492 21.6417 8.33328C21.6416 7.41328 22.3634 6.66664 23.285 6.66664ZM6.76664 18.4583C6.78828 18.6549 6.82828 18.8449 6.855 19.0383C6.91164 19.4283 6.96836 19.8183 7.05164 20.1983C7.1 20.4216 7.165 20.6383 7.22164 20.8566C7.31 21.2 7.40164 21.54 7.51164 21.8733C7.58664 22.0999 7.67328 22.3216 7.75664 22.5433C7.87664 22.8583 8 23.1699 8.13664 23.4766C8.23664 23.6966 8.34328 23.9116 8.45164 24.1283C8.6 24.4216 8.755 24.7116 8.92 24.9966C9.04 25.205 9.165 25.41 9.295 25.6133C9.47336 25.8916 9.66 26.1616 9.85336 26.4283C9.99172 26.6199 10.13 26.8099 10.2767 26.9933C10.4867 27.2583 10.7084 27.5116 10.9334 27.7633C11.085 27.9316 11.2317 28.1033 11.39 28.2649C11.6384 28.5216 11.9 28.7616 12.165 29.0016C12.2866 29.1116 12.3966 29.2332 12.5216 29.3399C7.19164 27.5933 3.33336 22.5716 3.33336 16.6666C3.33336 10.7616 7.19164 5.74 12.5216 3.99328C12.3966 4.09992 12.2866 4.22164 12.165 4.33164C11.9 4.57164 11.6384 4.81164 11.39 5.06828C11.2316 5.22992 11.0834 5.40164 10.9316 5.56992C10.7083 5.82156 10.4866 6.07492 10.2766 6.33828C10.13 6.52328 9.99164 6.71492 9.85328 6.90492C9.65992 7.17156 9.47164 7.44156 9.29492 7.71992C9.16492 7.92328 9.03992 8.12828 8.91992 8.33656C8.75492 8.62156 8.59992 8.91156 8.45156 9.20492C8.3432 9.42156 8.23656 9.63656 8.13656 9.85656C7.99992 10.1632 7.87656 10.4749 7.75656 10.7899C7.6732 11.0116 7.58656 11.2333 7.51156 11.4599C7.40156 11.7933 7.30992 12.1333 7.22156 12.4749C7.16492 12.6949 7.09992 12.9116 7.05156 13.1349C6.9682 13.5149 6.91156 13.9049 6.85492 14.2949C6.82828 14.4883 6.78828 14.6783 6.76656 14.8749C6.7032 15.4633 6.66656 16.0616 6.66656 16.6666C6.66664 17.2716 6.70336 17.87 6.76664 18.4583ZM13.3334 16.6916V16.6666C13.3334 14.0166 14.3634 11.5183 16.2317 9.63C16.8817 8.97664 17.9351 8.96836 18.5901 9.61836C19.2434 10.2667 19.2501 11.32 18.6017 11.975C17.3534 13.235 16.6667 14.9 16.6667 16.6666C16.6667 17.5866 15.9217 18.345 15.0001 18.345C14.0784 18.345 13.3334 17.6116 13.3334 16.6916ZM23.4316 26.6666H23.3333C20.6699 26.6666 18.1633 25.6283 16.2766 23.745C15.6233 23.095 15.6233 22.04 16.2733 21.3884C16.9233 20.7367 17.9783 20.735 18.6299 21.385C19.8899 22.6416 21.5599 23.3334 23.3333 23.3334C24.2549 23.3334 25.0483 24.08 25.0483 25C25.0483 25.92 24.3516 26.6666 23.4316 26.6666ZM33.3334 16.6666C33.3334 19.295 32.3184 21.7783 30.475 23.6616C30.1484 23.995 29.7166 24.1633 29.2834 24.1633C28.8634 24.1633 28.4417 24.0049 28.1184 23.6866C27.4617 23.0433 27.45 21.9883 28.0917 21.33C29.3234 20.0733 30 18.4166 30 16.6666C30 15.7466 30.745 14.9633 31.6666 14.9633C32.5883 14.9633 33.3333 15.6733 33.3333 16.5933V16.6666H33.3334Z" fill="#5A8CCA"/>
</svg>
