<svg width="40" height="35" viewBox="0 0 40 35" fill="none" xmlns="http://www.w3.org/2000/svg">
<path d="M13.304 10.2238C20.6516 10.2238 26.608 7.93512 26.608 5.1119C26.608 2.28868 20.6516 0 13.304 0C5.9564 0 0 2.28868 0 5.1119C0 7.93512 5.9564 10.2238 13.304 10.2238Z" fill="#C773C9"/>
<path d="M13.3041 15.2808C20.6517 15.2808 26.6081 12.9921 26.6081 10.1689C26.6081 9.72633 26.4617 9.2972 26.1865 8.88761C26.135 8.81098 25.9977 8.68192 25.7557 8.85583C25.0132 9.43104 24.3249 9.75067 23.1815 10.19C20.5223 11.2118 17.0144 11.7745 13.3041 11.7745C9.59378 11.7745 6.08566 11.2118 3.42656 10.19C2.28334 9.75067 1.47305 9.34145 0.730409 8.76612C0.589844 8.65974 0.468349 8.81769 0.414858 8.89781C0.144043 9.30415 0 9.73004 0 10.1689C0 12.9922 5.95649 15.2808 13.3041 15.2808Z" fill="#C773C9"/>
<path d="M17.091 26.9072C17.0842 26.8614 17.0707 26.7665 16.9424 26.7823C15.8022 26.8975 14.5089 26.945 13.304 26.945C9.59366 26.945 6.08554 26.3822 3.42644 25.3605C2.28322 24.9212 1.63137 24.626 0.888844 24.0508C0.655449 23.9193 0.409101 24.0706 0.33594 24.1933C0.116098 24.5617 0 24.9453 0 25.3393C0 28.1625 5.95649 30.4512 13.3041 30.4512C14.8948 30.4512 16.88 30.3629 18.2942 30.1662C18.418 30.1321 18.3873 30.0251 18.3522 29.9706C17.8305 29.1602 17.2475 27.9841 17.091 26.9072Z" fill="#C773C9"/>
<path d="M13.3041 25.3951C14.841 25.3951 15.7718 25.3209 16.5162 25.2448C16.7234 25.2156 16.7319 25.0894 16.7319 25.0221C16.7319 23.9787 16.873 22.9677 17.1371 22.0072C17.1682 21.8942 17.2555 21.67 17.0102 21.695C15.747 21.8384 14.6518 21.8889 13.3041 21.8889C9.59378 21.8889 6.08566 21.3263 3.42656 20.3045C2.28334 19.8651 1.66603 19.594 0.923505 19.0186C0.568135 18.7742 0.409221 19.0144 0.33594 19.1372C0.116098 19.5057 0 19.8894 0 20.2832C0 23.1064 5.95649 25.3951 13.3041 25.3951Z" fill="#C773C9"/>
<path d="M20.4801 16.4528C20.6105 16.3361 20.9135 16.0477 20.5035 16.0865C18.2439 16.659 16.0452 16.8318 13.304 16.8318C9.59366 16.8318 6.08554 16.2692 3.42644 15.2473C2.28322 14.808 1.56216 14.4638 0.819761 13.8886C0.567896 13.7172 0.448799 13.9018 0.388352 13.9957C0.134688 14.3898 0 14.8019 0 15.2261C0 18.0494 5.95649 20.338 13.3041 20.338C14.8692 20.338 16.0741 20.2732 17.4688 20.0825C17.7726 20.0364 17.8545 19.8518 17.8998 19.7582C18.5297 18.4588 19.3955 17.4234 20.4801 16.4528Z" fill="#C773C9"/>
<path d="M30.1893 23.7638C29.0253 23.2971 28.6889 23.0149 28.6889 22.5054C28.6889 22.0976 28.9977 21.6212 29.8685 21.6212C30.6387 21.6212 31.2294 21.9249 31.2347 21.9277C31.2969 21.9609 31.3666 21.9785 31.4356 21.9785C31.6041 21.9785 31.7531 21.8766 31.815 21.7186L32.0266 21.1777C32.1002 20.9807 31.9886 20.8089 31.846 20.7473C31.3718 20.5409 30.445 20.3811 30.4355 20.3795C30.4205 20.3769 30.3687 20.3659 30.3687 20.3051L30.3657 19.5204C30.3657 19.2842 30.1683 19.0918 29.9262 19.0918H29.5468C29.3047 19.0918 29.1075 19.2841 29.1075 19.5206L29.1084 20.3454C29.1084 20.4086 29.04 20.436 29.015 20.4419C27.8452 20.7205 27.1139 21.5775 27.1139 22.6584C27.1139 24.006 28.2278 24.615 29.4304 25.072C30.3919 25.4495 30.7839 25.8323 30.7839 26.3936C30.7839 27.0044 30.2285 27.4312 29.4328 27.4312C28.7533 27.4312 27.8336 27.0004 27.8244 26.996C27.7658 26.9682 27.7033 26.9541 27.6391 26.9541C27.4641 26.9541 27.3117 27.06 27.2508 27.2238L27.0487 27.7707C26.9768 27.975 27.0874 28.1408 27.2289 28.2145C27.7937 28.5085 28.8866 28.681 28.9353 28.6886C28.9483 28.6905 29.0149 28.7139 29.0149 28.7747V29.596C29.0149 29.8323 29.2122 30.0247 29.4545 30.0247H29.8468C30.0892 30.0247 30.2865 29.8323 30.2865 29.596V28.7318C30.2865 28.6509 30.3461 28.6438 30.3584 28.641C31.6047 28.361 32.3724 27.449 32.3724 26.3043C32.3723 25.128 31.7193 24.3681 30.1893 23.7638Z" fill="#C773C9"/>
<path d="M29.6994 14.2578C24.0102 14.2578 19.3987 18.8697 19.3987 24.5585C19.3987 30.2473 24.0102 34.8593 29.6994 34.8593C35.3883 34.8593 39.9999 30.2473 39.9999 24.5585C39.9999 18.8696 35.3883 14.2578 29.6994 14.2578ZM29.6994 32.4718C25.3288 32.4718 21.786 28.9287 21.786 24.5584C21.786 20.188 25.3288 16.645 29.6994 16.645C34.0697 16.645 37.6125 20.188 37.6125 24.5584C37.6125 28.9287 34.0697 32.4718 29.6994 32.4718Z" fill="#C773C9"/>
</svg>
